PathFileType	4	(X/Y/Z)	21_coords_data.trc
DataRate	CameraRate	NumFrames	NumMarkers	Units	OrigDataRate	OrigDataStartFrame	OrigNumFrames
30.0	30.0	5	21	m	30.0	10	59
Frame#	Time	THUMB_TIP	THUMB_IP	THUMB_MCP	THUMB_CMC	INDEX_TIP	INDEX_DIP	INDEX_PIP	INDEX_MCP	MIDDLE_TIP	MIDDLE_DIP	MIDDLE_PIP	MIDDLE_MCP	RING_TIP	RING_DIP	RING_PIP	RING_MCP	PINKY_TIP	PINKY_DIP	PINKY_PIP	PINKY_MCP	WRIST
X1	Y1	Z1	X2	Y2	Z2	X3	Y3	Z3	X4	Y4	Z4	X5	Y5	Z5	X6	Y6	Z6	X7	Y7	Z7	X8	Y8	Z8	X9	Y9	Z9	X10	Y10	Z10	X11	Y11	Z11	X12	Y12	Z12	X13	Y13	Z13	X14	Y14	Z14	X15	Y15	Z15	X16	Y16	Z16	X17	Y17	Z17	X18	Y18	Z18	X19	Y19	Z19	X20	Y20	Z20	X21	Y21	Z21
8	0.2999999999999987	0.4733101033826216	-0.0256709015758273	-0.17280530584095477	0.47711881831321795	-0.026794566213089066	-0.1501727834812968	0.47823863194090316	-0.029693385366424074	-0.11920242886667376	0.479404679902368	-0.025993898570299212	-0.07476321049374468	0.5064531936595948	-0.010788182921240841	-0.09755856416280806	0.5243931692963861	-0.013095550202354755	-0.09847143347513387	0.5400316879591064	2.5390866819963165e-05	-0.11314411122989276	0.5007929224723756	0.016277027786053444	-0.11628093677855744	0.506253681400201	-0.012561977713087868	-0.08573319538927826	0.523661429120003	-0.00882896128810673	-0.08241131223441722	0.5433535377506185	0.007241703569125124	-0.09667189212187544	0.5043868494089234	0.029018314872292672	-0.0985492095782391	0.5121164981833064	-0.00041080119069025756	-0.07217462685461873	0.5296527261181323	0.003442974828807066	-0.0737960830548855	0.545718078656367	0.019562038499575718	-0.08390846226058868	0.5089907706521251	0.03589962378042577	-0.07956001564685522	0.5182687608151757	-0.0016148742951654915	-0.06018921875639982	0.5350604253171126	0.0010361125361574297	-0.0621922844254541	0.5429462014667642	0.019646492505666857	-0.06787386087113079	0.5099428332207125	0.03264571714362907	-0.06134076863029181	0.46228308100186083	-0.023011742144276925	-0.051989820119430985
9	0.33333333333333187	0.47344304619029093	-0.02553816480051596	-0.1728102191838451	0.47721192196766615	-0.02669391085966144	-0.15017264364180694	0.4782748748494161	-0.029632982591326296	-0.11920407912022613	0.47941206937383624	-0.02596325677078759	-0.07476164555706821	0.5064425347961018	-0.0107090790858686	-0.09757231419530288	0.5243815044652556	-0.01304173535515063	-0.09843954077386396	0.5400466034387972	7.624870007316709e-05	-0.11308648589822468	0.5008095024910759	0.016328805214120057	-0.11623932746989307	0.5062425211636854	-0.012436428378999831	-0.08578762332969514	0.5236517194033574	-0.008804314370373212	-0.08236307015006161	0.5433438214557109	0.007269674934499704	-0.09661991182648277	0.5043835394907787	0.02905670503936708	-0.09850926870716703	0.5121375384939943	-0.0004187055478740431	-0.07212133015621647	0.5296674822896912	0.0034508176980391214	-0.07377295371170667	0.545727185603602	0.01958539916071189	-0.08386954667634272	0.5089962481229955	0.035914334723853525	-0.07951926747029803	0.5182779894424652	-0.0016089511820875924	-0.06014810445540597	0.5350624494019884	0.0010556852079214307	-0.06219300464275046	0.5429575375392531	0.019668753770520353	-0.06785279977939762	0.5099451605943206	0.03264671502063132	-0.06132294976302555	0.4622830810018609	-0.023011742144276925	-0.051989820119430985
10	0.3666666666666651	0.47355093419529665	-0.025404819203661888	-0.17281073434644156	0.477282498681418	-0.026588966277738657	-0.15016844598609957	0.47830482512282907	-0.02957016123336409	-0.11920254013331133	0.4794222799824283	-0.025952837700444542	-0.07475531001607072	0.5064245271143348	-0.010647870730977838	-0.09759562719316539	0.5243658518808518	-0.012977694340768564	-0.09842072571433069	0.5400302840644263	0.0001549671479332826	-0.11305522603341756	0.5007846101906852	0.016384461101952463	-0.11622014344030418	0.5062412487194292	-0.01260961521831705	-0.08559587186078699	0.5236381732642736	-0.008755352749166168	-0.08235678600210905	0.5433089150172435	0.00735231252612123	-0.09660510478950535	0.5043335855460702	0.029112643005268835	-0.09849180324229645	0.5121227471441689	-0.0003701292179743021	-0.07211760741936912	0.5296522329346629	0.003497958043091054	-0.07377743538083359	0.5456925678634537	0.019655793153098622	-0.08386762858661623	0.5089463319366887	0.035951906438025705	-0.07952347492688516	0.5182803162691383	-0.0015852061338252899	-0.06012510285529127	0.5350528430252445	0.0011191240605643582	-0.06221530485878557	0.5429325015822688	0.01974334708994052	-0.06785988779969154	0.5099070716058862	0.03268059574013593	-0.061315269916417336	0.4622830810018609	-0.023011742144276925	-0.051989820119430985
11	0.39999999999999825	0.47361466989620776	-0.02525980412139761	-0.1728121979709265	0.47732215442443215	-0.026471375887867632	-0.15016740491981495	0.47831980468074753	-0.02950206060584315	-0.11920549858144003	0.47942670151125877	-0.02594194167700692	-0.0747533857787942	0.5063949297872679	-0.010585167037355125	-0.09757698240448476	0.5243359095092817	-0.012918520853115623	-0.0983996041795232	0.5400148289586484	0.00021672484917634183	-0.1130162603717133	0.5007689310567189	0.01644328314285093	-0.11619342857835724	0.5061897471964151	-0.012617279912272239	-0.08551381663416002	0.5235825153187448	-0.008709987075983694	-0.08231621132168654	0.5432535782740078	0.007397707936051878	-0.0965640530392704	0.5042872872661959	0.02917288661732742	-0.09846607288486753	0.5120977099265733	-0.00032577794586163833	-0.0721074686511044	0.529622231917483	0.0035603378550052023	-0.07377756834045679	0.5456596265125676	0.019728936056652713	-0.08385518640204448	0.5089036240297272	0.035998808225290446	-0.07949532687476313	0.5182714041769254	-0.0015515096285597663	-0.06007953499033769	0.5350358381277748	0.0011640793223147705	-0.06221947212901535	0.5429017299006341	0.019797228252964483	-0.06785378899496208	0.5098682950382971	0.03271457092791907	-0.06131025092954634	0.46228308100186083	-0.023011742144276925	-0.051989820119430985
12	0.43333333333333146	0.47368906168002256	-0.025119890398662026	-0.17280207749674636	0.4773726524811555	-0.026358561779129097	-0.15015485135266815	0.4783396137464376	-0.029445142057687	-0.11919749345352781	0.4794441156353664	-0.02593108680245404	-0.07474165591512882	0.506368948296237	-0.010596344273570701	-0.0975001435740015	0.5243129131405736	-0.012892496814545407	-0.09836142701967421	0.5400170663966862	0.00023494059316664373	-0.11295799478799329	0.5007855185654218	0.016492644579128468	-0.11615311761318314	0.5061686221885224	-0.012740744963293582	-0.08543352747084698	0.5235398902303764	-0.008708685460706578	-0.08227416950036315	0.5432330017392825	0.007391345083697876	-0.09650019935999155	0.5042912058807484	0.029208523687563215	-0.09842248291849676	0.5120972040983864	-0.00028248253910023724	-0.0721176486457239	0.5296285531033862	0.003583134475601546	-0.0737634940699805	0.5456643729498348	0.01975867213658622	-0.0838324782407055	0.5089056720900793	0.03601707461823156	-0.07945262734737057	0.5182984934526165	-0.0015435611102542213	-0.06003206474337941	0.5350579862588289	0.0011741905629425453	-0.06220766275802858	0.542919798107093	0.019807764184518017	-0.06784626786495185	0.5098838547512724	0.03270653325441042	-0.06127879848378204	0.4622830810018609	-0.023011742144276925	-0.051989820119430985
